# Blender 4.1.0
# www.blender.org
mtllib LP_Nosferatus.mtl
o Nosferatus_LOW_POLY
v -0.354802 1.347177 1.070827
v -0.455389 2.163434 1.151859
v -0.472369 1.528920 0.489949
v -0.472369 2.177985 0.473184
v 0.108106 0.693985 1.412675
v 0.108106 2.356965 1.602288
v 0.086018 1.418158 0.122405
v 0.090548 2.362839 0.084628
v -0.443604 1.693096 1.201898
v -0.472369 1.682443 0.434065
v 0.086018 1.777397 -0.008363
v 0.108106 1.521210 1.695573
v -0.152954 1.448422 0.151179
v -0.325898 1.573414 0.274264
v -0.368668 2.191771 0.244337
v -0.148424 2.350908 0.114892
v -0.235524 0.909547 1.292554
v -0.105133 0.767274 1.389816
v -0.117395 2.345282 1.572226
v -0.367239 2.201195 1.444227
v -0.104138 1.545283 1.532109
v -0.239450 1.597401 1.385032
v -0.325898 1.860770 0.169663
v -0.152954 1.794015 0.025379
v -0.455663 1.491898 0.752499
v -0.400320 1.271356 0.880927
v -0.490975 2.181091 0.942399
v -0.536697 2.163690 0.721763
v 0.108106 0.619205 0.968313
v 0.108106 1.203164 0.667796
v 0.108106 2.752031 0.595874
v 0.111045 2.704687 1.112158
v -0.488827 1.688653 0.929158
v -0.500897 1.703122 0.742889
v -0.130866 2.701446 0.604042
v -0.123678 2.635167 1.100714
v -0.462083 2.488255 0.639193
v -0.387388 2.456204 1.052170
v -0.303810 1.362345 0.696723
v -0.303810 0.865489 0.937108
v -0.130866 1.234174 0.673232
v -0.119245 0.690079 0.962334
v 0.108106 1.459545 1.693264
v -0.331829 1.634449 1.393476
v 0.027947 0.701962 1.401245
v -0.108406 1.683079 1.668271
v -0.130866 1.466103 1.647779
v -0.004407 0.655804 0.965324
v 0.020694 1.533246 1.678306
v -0.260415 1.698782 1.523215
v -0.303810 1.530763 1.497696
v 0.070919 1.454511 1.669595
v 0.108106 1.644501 1.705252
v 0.108106 1.242781 1.741002
v -0.388755 1.649837 1.248627
v -0.338112 1.772166 1.509378
v -0.135514 1.336852 1.604366
v -0.107392 1.783363 1.650897
v 0.043082 1.270795 1.725873
v -0.303810 1.398215 1.468992
v -0.023512 1.310249 1.634684
v 0.108106 1.332733 1.715345
v 0.054165 1.331033 1.687733
v 0.108106 1.190833 1.627716
v 0.028778 1.232179 1.618156
v -0.033797 1.495889 1.584484
v -0.266445 1.548321 1.437796
v -0.114913 1.500971 1.581895
v -0.237070 1.664685 1.466023
v -0.289151 1.621510 1.341957
v -0.011395 1.535200 1.596594
v -0.113346 1.648170 1.592062
v -0.019278 1.460144 1.653673
v 0.028345 0.955986 1.525043
v 0.013268 1.088136 1.592587
v -0.073294 0.977125 1.487939
v 0.108106 1.113505 1.614124
v 0.108106 0.942034 1.524620
v 0.026035 1.055733 1.524211
v 0.190487 1.055308 1.525909
v 0.108106 1.076751 1.610373
v 0.026035 1.055733 1.579363
v 0.024433 0.990280 1.544940
v 0.108106 0.997172 1.539990
v 0.069639 1.013201 1.527321
v 0.108106 1.066445 1.543638
v -0.754130 2.044788 0.674222
v -0.489216 1.832575 0.929967
v -0.490084 1.633716 0.737345
v -0.467150 1.644551 1.012135
v -0.526701 1.960776 0.723956
v -0.482273 1.887324 0.946060
v -0.470750 1.631331 0.948990
v -0.489124 1.685678 0.670784
v 0.560192 1.356064 1.070827
v 0.671602 2.163434 1.151859
v 0.688581 1.528920 0.489949
v 0.688581 2.177985 0.473184
v 0.638638 1.687367 1.201898
v 0.688581 1.682443 0.434065
v 0.324990 1.448422 0.151179
v 0.497935 1.573414 0.274264
v 0.549765 2.191771 0.244337
v 0.329520 2.350908 0.114892
v 0.461033 0.860739 1.292554
v 0.323669 0.732411 1.389816
v 0.333607 2.345282 1.572226
v 0.583452 2.201195 1.444227
v 0.320350 1.545283 1.532109
v 0.455663 1.597401 1.385032
v 0.497935 1.860770 0.169663
v 0.324990 1.794015 0.025379
v 0.688581 1.520537 0.752499
v 0.580145 1.287217 0.880927
v 0.639019 2.312906 0.942399
v 0.686043 2.187571 0.721763
v 0.105167 2.704687 1.112158
v 0.725843 1.705674 0.937506
v 0.714575 1.703329 0.741821
v 0.347078 2.701446 0.604042
v 0.339891 2.635167 1.100714
v 0.592324 2.497807 0.639193
v 0.546286 2.475309 1.052170
v 0.520023 1.362345 0.696723
v 0.520023 0.865489 0.937108
v 0.347078 1.234174 0.673232
v 0.333133 0.676134 0.962334
v 0.548041 1.634449 1.393476
v 0.188265 0.701962 1.401245
v 0.324618 1.683079 1.668271
v 0.347078 1.466103 1.647779
v 0.218295 0.632562 0.965324
v 0.195518 1.533246 1.678306
v 0.476627 1.698782 1.523215
v 0.520023 1.530763 1.497696
v 0.145293 1.454511 1.669595
v 0.604967 1.649837 1.248627
v 0.554324 1.772166 1.509378
v 0.351726 1.336852 1.604366
v 0.323604 1.783363 1.650897
v 0.173130 1.270795 1.725873
v 0.520023 1.398215 1.468992
v 0.239724 1.310249 1.634684
v 0.162047 1.331033 1.687733
v 0.187434 1.232179 1.618156
v 0.250010 1.495889 1.584484
v 0.482658 1.548321 1.437796
v 0.331125 1.500971 1.581895
v 0.453283 1.664685 1.466023
v 0.505364 1.621510 1.341957
v 0.227607 1.535200 1.596594
v 0.329558 1.648170 1.592062
v 0.235490 1.460144 1.653673
v 0.187867 0.955986 1.525043
v 0.202944 1.088136 1.592587
v 0.294379 0.983145 1.490765
v 0.190487 1.055308 1.579553
v 0.191780 0.990280 1.544940
v 0.972992 2.041947 0.675285
v 0.701190 1.830498 0.930893
v 0.706297 1.633716 0.737345
v 0.709964 1.689703 1.008182
v 0.683211 1.934242 0.723956
v 0.698486 1.887324 0.946060
v 0.713564 1.676483 0.945038
v 0.705336 1.685678 0.670784
v -0.477068 1.674306 0.942198
v -0.498501 1.687488 0.730145
v -0.486285 1.839991 0.946536
v -0.785731 2.089747 0.646932
v -0.488827 1.688653 0.929158
v -0.500897 1.703122 0.742889
v -0.489216 1.832575 0.929967
v -0.754130 2.044788 0.674222
v -0.488827 1.688653 0.929158
v -0.500897 1.703122 0.742889
v -0.489216 1.832575 0.929967
v -0.754130 2.044788 0.674222
v -0.464403 1.700091 0.919719
v -0.476474 1.714559 0.733450
v -0.464793 1.844012 0.920528
v -0.729707 2.056226 0.664783
v 0.714713 1.695871 0.947988
v 0.714713 1.687488 0.730145
v 0.702498 1.839991 0.946536
v 1.001943 2.089747 0.646932
v 0.718877 1.719942 0.923965
v 0.708518 1.717787 0.744081
v 0.696214 1.834687 0.917886
v 0.946069 2.029062 0.682918
v 0.108152 1.029902 1.530099
v 0.149411 1.012647 1.528269
v 0.016209 1.062358 1.595252
v 0.108106 1.066445 1.594236
v -0.083836 0.965907 1.505799
v 0.025520 1.006709 1.535982
v 0.108106 0.980302 1.548365
v 0.200003 1.062358 1.595252
v 0.305385 0.972473 1.508940
v 0.190377 1.006697 1.536048
v 0.108106 1.066445 1.594236
v 0.025520 1.006709 1.535982
v -0.073294 0.977125 1.487939
v 0.026035 1.055733 1.579363
v 0.108106 0.997172 1.539990
v 0.190377 1.006697 1.536048
v 0.294379 0.983145 1.490765
v 0.190487 1.055308 1.579553
v 0.108106 1.066445 1.498365
v 0.108106 1.021913 1.436130
v 0.025520 1.006709 1.440111
v 0.020820 1.021945 1.428572
v -0.073294 0.977125 1.392068
v 0.026035 1.055733 1.483492
v 0.108106 0.997172 1.444119
v 0.190377 1.006697 1.440177
v 0.195393 1.021945 1.428572
v 0.294379 0.983145 1.394894
v 0.190487 1.055308 1.483682
vn 0.0576 -0.0167 -0.9982
vn -0.1296 0.1574 -0.9790
vn -0.6827 -0.5521 0.4787
vn -0.3760 -0.9142 0.1509
vn -0.9316 0.2906 0.2181
vn -0.9602 -0.2111 0.1828
vn -0.1546 -0.3379 -0.9284
vn -0.9931 -0.1138 -0.0267
vn -0.7880 -0.2106 -0.5786
vn -0.6755 -0.2522 -0.6929
vn -0.1197 -0.4219 0.8987
vn -0.7125 -0.2981 0.6353
vn -0.1932 0.8174 0.5427
vn -0.5813 0.6800 0.4468
vn -0.9572 -0.1670 0.2365
vn -0.7323 -0.6571 0.1788
vn -0.1714 0.0058 0.9852
vn -0.6950 -0.4750 0.5398
vn -0.8941 0.0153 -0.4475
vn -0.5863 0.1228 -0.8007
vn -0.6422 -0.7097 -0.2896
vn -0.3581 -0.4265 -0.8306
vn -0.4855 -0.8305 -0.2733
vn -0.7489 -0.3478 -0.5641
vn -0.5802 0.6327 -0.5129
vn -0.5472 0.8254 0.1385
vn -0.1513 0.7973 -0.5843
vn -0.2450 0.9632 0.1105
vn -0.9286 -0.2830 0.2402
vn -0.9745 -0.2116 0.0753
vn -0.9280 0.1992 -0.3149
vn -0.9442 0.2721 0.1857
vn -0.1440 -0.9202 -0.3641
vn -0.1000 -0.4622 -0.8811
vn -0.9891 -0.0183 0.1459
vn -0.0000 1.0000 -0.0000
vn -0.0000 -0.0000 -1.0000
vn -0.0000 -0.0000 1.0000
vn -0.2442 -0.4448 0.8617
vn -0.2779 0.4841 0.8297
vn -0.3161 -0.1861 0.9303
vn -0.3180 0.7563 0.5717
vn -0.7956 -0.4109 0.4451
vn -0.5402 -0.4592 0.7052
vn -0.2331 -0.9622 0.1408
vn -0.5959 -0.1204 0.7940
vn -0.1698 0.7634 0.6232
vn -0.2321 0.3947 0.8890
vn -0.5118 0.1036 0.8529
vn -0.1475 0.1384 0.9793
vn -0.6699 -0.1861 0.7187
vn -0.9473 -0.0421 0.3175
vn -0.1859 -0.2087 0.9601
vn -0.9480 -0.0107 0.3182
vn -0.5738 0.5109 0.6401
vn -0.4533 -0.8141 0.3630
vn -0.4928 0.1701 0.8534
vn -0.7596 -0.5737 0.3065
vn -0.3819 0.0264 0.9238
vn -0.1829 -0.2226 0.9576
vn -0.0219 0.9261 0.3767
vn -0.0076 -0.9194 0.3932
vn -0.7247 -0.6206 0.2994
vn -0.4500 -0.8170 0.3606
vn 0.5855 0.6753 0.4486
vn 0.0303 0.8857 0.4633
vn -0.8615 0.3615 0.3564
vn -0.0913 -0.5169 0.8512
vn -0.1876 -0.1583 0.9694
vn -0.1891 -0.5088 0.8398
vn -0.3338 -0.2596 0.9062
vn 0.1294 -0.9916 -0.0000
vn 0.0001 1.0000 -0.0000
vn -0.0001 1.0000 -0.0000
vn -0.1873 -0.0259 0.9820
vn -0.6670 0.0009 0.7450
vn 0.0001 1.0000 0.0001
vn -0.1340 -0.9910 -0.0000
vn 0.1417 0.8806 0.4521
vn -0.9865 -0.1372 0.0899
vn -0.9787 -0.0276 0.2033
vn -0.9738 -0.1723 -0.1486
vn -0.9837 -0.0337 -0.1768
vn -0.9802 -0.0346 0.1952
vn -0.9877 -0.1319 0.0839
vn -0.0393 -0.0301 -0.9988
vn 0.1296 0.1554 -0.9793
vn 0.6827 -0.5521 0.4787
vn 0.2884 -0.9456 0.1508
vn 0.8881 0.4180 0.1914
vn 0.9738 -0.1842 0.1331
vn 0.1546 -0.3379 -0.9284
vn 0.9962 -0.0757 -0.0434
vn 0.7011 -0.2439 -0.6700
vn 0.6755 -0.2522 -0.6929
vn 0.1197 -0.4219 0.8987
vn 0.6903 -0.2797 0.6673
vn 0.1932 0.8174 0.5427
vn 0.6101 0.6732 0.4178
vn 0.9800 -0.1229 0.1563
vn 0.7163 -0.6894 0.1080
vn 0.1714 0.0058 0.9852
vn 0.6950 -0.4750 0.5398
vn 0.8355 0.0232 -0.5490
vn 0.5853 0.1114 -0.8031
vn 0.6449 -0.6851 -0.3387
vn 0.3676 -0.4211 -0.8292
vn 0.4767 -0.8326 -0.2821
vn 0.8472 -0.3344 -0.4129
vn 0.6375 0.5971 -0.4869
vn 0.6251 0.7725 0.1120
vn 0.1512 0.7923 -0.5911
vn 0.2450 0.9632 0.1105
vn 0.9023 -0.3496 0.2523
vn 0.9478 -0.2965 0.1172
vn 0.8842 0.3953 -0.2489
vn 0.9289 0.3620 0.0777
vn 0.1442 -0.9160 -0.3743
vn 0.0846 -0.4535 -0.8872
vn 0.9901 0.0563 0.1289
vn 0.2859 -0.0300 0.9578
vn 0.1761 -0.4290 0.8860
vn 0.2779 0.4841 0.8297
vn 0.3161 -0.1861 0.9303
vn 0.3180 0.7563 0.5717
vn 0.7956 -0.4109 0.4451
vn 0.5402 -0.4592 0.7052
vn 0.1222 -0.9788 0.1645
vn 0.5959 -0.1204 0.7940
vn 0.1698 0.7634 0.6232
vn 0.2321 0.3947 0.8890
vn 0.5118 0.1036 0.8529
vn 0.1475 0.1384 0.9793
vn 0.6699 -0.1861 0.7187
vn 0.9570 -0.0492 0.2860
vn 0.1859 -0.2087 0.9601
vn 0.9480 -0.0107 0.3182
vn 0.5738 0.5109 0.6401
vn 0.4533 -0.8141 0.3630
vn 0.4928 0.1701 0.8534
vn 0.7596 -0.5737 0.3065
vn 0.3819 0.0264 0.9238
vn 0.1829 -0.2226 0.9576
vn 0.0219 0.9261 0.3767
vn 0.0076 -0.9194 0.3932
vn 0.7247 -0.6206 0.2994
vn 0.4500 -0.8170 0.3606
vn -0.5855 0.6753 0.4486
vn -0.0303 0.8857 0.4633
vn 0.8615 0.3615 0.3564
vn 0.0913 -0.5169 0.8512
vn 0.1876 -0.1583 0.9694
vn 0.1865 -0.5089 0.8404
vn 0.3253 -0.2548 0.9106
vn -0.1096 0.1943 -0.9748
vn -0.0000 1.0000 0.0001
vn 0.1873 -0.0259 0.9820
vn 0.6372 0.0070 0.7707
vn -0.0000 1.0000 -0.0001
vn 0.1329 0.2014 -0.9705
vn -0.2058 0.8946 0.3966
vn 0.9916 -0.1297 -0.0013
vn 0.9926 0.0850 0.0870
vn 0.9738 -0.1723 -0.1486
vn 0.9998 0.0204 -0.0035
vn 0.9949 0.0835 0.0566
vn 0.9950 -0.0698 0.0713
vn -0.9035 -0.4261 0.0464
vn -0.8985 -0.0352 0.4375
vn -0.8124 -0.5517 0.1885
vn -0.7846 -0.3209 0.5304
vn -0.0027 1.0000 -0.0001
vn 0.2000 0.3334 0.9213
vn -0.8548 -0.4003 0.3304
vn -0.3913 0.9152 0.0964
vn 0.0766 -0.7269 -0.6825
vn -0.3622 0.0043 -0.9321
vn 0.9193 -0.3933 -0.0148
vn 0.9266 0.1375 0.3500
vn 0.8107 -0.5700 0.1341
vn 0.7765 -0.2855 0.5618
vn 0.8651 -0.3857 0.3207
vn 0.9176 0.3934 -0.0576
vn 0.3030 -0.8672 -0.3952
vn 0.9375 0.1690 -0.3042
vn 0.0443 -0.8775 0.4775
vn 0.5313 -0.8210 0.2089
vn -0.4209 0.7166 0.5562
vn 0.0145 0.4613 0.8871
vn -0.0442 -0.8715 0.4883
vn -0.4868 -0.8493 0.2041
vn 0.3549 0.7371 0.5750
vn -0.0146 0.4599 0.8878
vn -0.2868 0.9580 -0.0000
vn 0.2209 0.9753 -0.0000
vn 0.6206 -0.7842 -0.0000
vn 0.1147 0.9934 -0.0000
vn -0.5705 -0.8213 -0.0000
vn -0.1150 0.9934 -0.0000
vn 0.2077 -0.8418 0.4982
vn -0.0213 -0.8307 0.5563
vn -0.4955 0.4221 0.7592
vn -0.0367 0.4351 0.8996
vn -0.1631 -0.8504 0.5003
vn 0.0181 -0.8327 0.5535
vn 0.4403 0.4476 0.7784
vn 0.0364 0.4360 0.8992
vt 0.500000 0.166667
vt 0.576327 0.166667
vt 0.592287 0.166667
vt 0.500000 0.196569
vt 0.500000 0.416667
vt 0.625000 0.416667
vt 0.625000 0.500000
vt 0.500000 0.500000
vt 0.500000 0.916667
vt 0.512570 0.906988
vt 0.503002 0.954355
vt 0.291667 0.666667
vt 0.333333 0.666667
vt 0.333333 0.750000
vt 0.291667 0.750000
vt 0.791667 0.666667
vt 0.875000 0.666667
vt 0.875000 0.750000
vt 0.791667 0.750000
vt 0.375000 0.916667
vt 0.464722 0.916667
vt 0.500000 0.988482
vt 0.500000 1.000000
vt 0.375000 1.000000
vt 0.375000 0.416667
vt 0.375000 0.500000
vt 0.375000 0.166667
vt 0.459740 0.166667
vt 0.500000 0.250000
vt 0.375000 0.250000
vt 0.500000 0.333333
vt 0.375000 0.333333
vt 0.375000 0.750000
vt 0.418669 0.750000
vt 0.416073 0.791667
vt 0.375000 0.791667
vt 0.375000 0.833333
vt 0.420297 0.833333
vt 0.470153 0.833333
vt 0.625000 0.666667
vt 0.708333 0.666667
vt 0.708333 0.750000
vt 0.625000 0.750000
vt 0.125000 0.666667
vt 0.208333 0.666667
vt 0.208333 0.750000
vt 0.125000 0.750000
vt 0.498213 0.751222
vt 0.515641 0.750000
vt 0.540170 0.833333
vt 0.521436 0.833333
vt 0.500508 0.795124
vt 0.500000 0.833333
vt 0.515695 0.836876
vt 0.625000 0.250000
vt 0.625000 0.333333
vt 0.208333 0.500000
vt 0.291667 0.500000
vt 0.291667 0.583333
vt 0.208333 0.583333
vt 0.125000 0.500000
vt 0.125000 0.583333
vt 0.708333 0.500000
vt 0.791667 0.500000
vt 0.791667 0.583333
vt 0.708333 0.583333
vt 0.625000 0.583333
vt 0.375000 0.000000
vt 0.500000 0.000000
vt 0.500000 0.063577
vt 0.494502 0.083333
vt 0.375000 0.083333
vt 0.875000 0.500000
vt 0.875000 0.583333
vt 0.375000 0.583333
vt 0.375000 0.666667
vt 0.625000 0.000000
vt 0.625000 0.083333
vt 0.543124 0.083333
vt 0.568572 0.161187
vt 0.502830 0.160202
vt 0.490654 0.831452
vt 0.492897 0.813337
vt 0.500733 0.805812
vt 0.484939 0.791668
vt 0.485809 0.750000
vt 0.486184 0.906457
vt 0.500000 0.975569
vt 0.517645 0.916667
vt 0.536451 0.916667
vt 0.470926 0.791667
vt 0.472976 0.750000
vt 0.477994 0.750000
vt 0.474780 0.791667
vt 0.625000 0.833333
vt 0.625000 0.916667
vt 0.484073 0.833333
vt 0.479318 0.916667
vt 0.625000 1.000000
vt 0.470456 0.816954
vt 0.484559 0.809990
vt 0.460730 0.791667
vt 0.462471 0.750000
vt 0.425406 0.750000
vt 0.421746 0.791667
vt 0.437934 0.791667
vt 0.448857 0.750000
vt 0.440452 0.750000
vt 0.432511 0.788365
vt 0.432527 0.788601
vt 0.424573 0.790079
vt 0.423010 0.830243
vt 0.433670 0.791667
vt 0.442386 0.750000
vt 0.422989 0.830551
vt 0.424557 0.790233
vt 0.428501 0.750025
vt 0.532463 0.083333
vt 0.500000 0.083333
vt 0.625000 0.166667
vt 0.503984 0.157898
vt 0.565495 0.159029
vt 0.503255 0.089411
vt 0.530361 0.088032
vt 0.505223 0.091650
vt 0.528919 0.089939
vt 0.426984 0.791667
vt 0.432732 0.750000
s 0
f 168/1/1 170/2/1 91/3/1 94/4/1
f 24/5/2 16/6/2 8/7/2 11/8/2
f 22/9/3 69/10/3 70/11/3
f 42/12/4 48/13/4 45/14/4 18/15/4
f 38/16/5 27/17/5 2/18/5 20/19/5
f 17/20/6 60/21/6 55/22/6 9/23/6 1/24/6
f 13/25/7 24/5/7 11/8/7 7/26/7
f 25/27/8 89/28/8 94/4/8 10/29/8 3/30/8
f 3/30/9 10/29/9 23/31/9 14/32/9
f 14/32/10 23/31/10 24/5/10 13/25/10
f 5/33/11 78/34/11 74/35/11 45/36/11
f 18/37/12 195/38/12 57/39/12 60/21/12 17/20/12
f 32/40/13 36/41/13 19/42/13 6/43/13
f 36/41/14 38/16/14 20/19/14 19/42/14
f 26/44/15 40/45/15 17/46/15 1/47/15
f 40/45/16 42/12/16 18/15/16 17/46/16
f 12/48/17 53/49/17 58/50/17 46/51/17 49/52/17
f 21/53/18 72/54/18 69/10/18 22/9/18
f 10/29/19 4/55/19 15/56/19 23/31/19
f 23/31/20 15/56/20 16/6/20 24/5/20
f 14/57/21 13/58/21 41/59/21 39/60/21
f 39/60/22 41/59/22 42/12/22 40/45/22
f 3/61/23 14/57/23 39/60/23 25/62/23
f 25/62/24 39/60/24 40/45/24 26/44/24
f 16/63/25 15/64/25 37/65/25 35/66/25
f 35/66/26 37/65/26 38/16/26 36/41/26
f 8/7/27 16/63/27 35/66/27 31/67/27
f 31/67/28 35/66/28 36/41/28 32/40/28
f 1/68/29 9/69/29 90/70/29 93/71/29 26/72/29
f 26/72/30 93/71/30 89/28/30 25/27/30
f 15/64/31 4/73/31 28/74/31 37/65/31
f 37/65/32 28/74/32 27/17/32 38/16/32
f 13/58/33 7/26/33 30/75/33 41/59/33
f 41/59/34 30/75/34 29/76/34 48/13/34 42/12/34
f 9/69/35 2/77/35 27/78/35 92/79/35 90/70/35
f 87/80/36 34/81/37 172/81/36 174/80/38
f 45/36/39 74/35/39 195/38/39 18/37/39
f 68/82/40 66/83/40 71/84/40 21/53/40
f 49/52/41 52/85/41 43/86/41 12/48/41
f 67/87/42 68/82/42 21/53/42 22/9/42
f 44/88/43 50/89/43 56/90/43 55/22/43
f 71/84/44 72/54/44 21/53/44
f 45/14/45 48/13/45 29/76/45 5/33/45
f 50/89/46 46/51/46 58/50/46 56/90/46
f 70/11/47 67/87/47 22/9/47
f 59/91/48 54/92/48 62/93/48 63/94/48
f 56/90/49 58/50/49 19/95/49 20/96/49
f 58/50/50 53/49/50 6/43/50 19/95/50
f 60/21/51 57/39/51 47/97/51 51/98/51
f 55/22/52 56/90/52 20/96/52 2/99/52 9/23/52
f 57/39/53 61/100/53 73/101/53 47/97/53
f 55/22/54 60/21/54 51/98/54 44/88/54
f 63/94/55 61/100/55 59/91/55
f 65/102/56 64/103/56 54/92/56 59/91/56
f 63/94/57 62/93/57 43/86/57 52/85/57
f 61/100/58 65/102/58 59/91/58
f 73/101/59 61/100/59 63/94/59 52/85/59
f 49/52/60 73/101/60 52/85/60
f 68/82/61 67/87/61 51/98/61 47/97/61
f 70/11/62 69/10/62 50/89/62 44/88/62
f 72/54/63 71/84/63 49/52/63 46/51/63
f 69/10/64 72/54/64 46/51/64 50/89/64
f 67/87/65 70/11/65 44/88/65 51/98/65
f 66/83/66 68/82/66 47/97/66 73/101/66
f 71/84/67 66/83/67 73/101/67 49/52/67
f 74/35/68 78/34/68 197/104/68 83/105/68
f 75/106/69 77/107/69 64/103/69 65/102/69
f 195/38/70 74/35/70 83/105/70
f 75/106/71 65/102/71 61/100/71 57/39/71 195/38/71
f 86/108/72 79/109/72 214/109/72 209/108/72
f 157/110/36 194/108/37 201/108/73 208/110/37
f 200/111/74 156/112/38 207/112/36 206/111/37
f 193/113/75 81/114/75 77/107/75 75/106/75
f 195/38/76 193/113/76 75/106/76
f 82/109/74 76/115/38 203/115/36 204/109/37
f 196/116/77 84/117/37 205/117/36 202/116/38
f 80/110/78 86/108/78 209/108/78 219/110/78
f 170/2/79 169/118/79 92/79/79 91/3/79
f 89/28/80 93/71/80 167/119/80 168/1/80
f 90/70/81 92/79/81 169/118/81 167/119/81
f 94/4/82 89/28/82 168/1/82
f 94/4/83 91/3/83 28/120/83 4/55/83 10/29/83
f 91/3/84 92/79/84 27/78/84 28/120/84
f 93/71/85 90/70/85 167/119/85
f 184/1/86 166/4/86 163/3/86 186/2/86
f 112/5/87 11/8/87 8/7/87 104/6/87
f 110/9/88 150/11/88 149/10/88
f 127/12/89 106/15/89 129/14/89 132/13/89
f 123/16/90 108/19/90 96/18/90 115/17/90
f 105/20/91 95/24/91 99/23/91 137/22/91 142/21/91
f 101/25/92 7/26/92 11/8/92 112/5/92
f 113/27/93 97/30/93 100/29/93 166/4/93 161/28/93
f 97/30/94 102/32/94 111/31/94 100/29/94
f 102/32/95 101/25/95 112/5/95 111/31/95
f 5/33/96 129/36/96 154/35/96 78/34/96
f 106/37/97 105/20/97 142/21/97 139/39/97 199/38/97
f 117/40/98 6/43/98 107/42/98 121/41/98
f 121/41/99 107/42/99 108/19/99 123/16/99
f 114/44/100 95/47/100 105/46/100 125/45/100
f 125/45/101 105/46/101 106/15/101 127/12/101
f 12/48/102 133/52/102 130/51/102 140/50/102 53/49/102
f 109/53/103 110/9/103 149/10/103 152/54/103
f 100/29/104 111/31/104 103/56/104 98/55/104
f 111/31/105 112/5/105 104/6/105 103/56/105
f 102/57/106 124/60/106 126/59/106 101/58/106
f 124/60/107 125/45/107 127/12/107 126/59/107
f 97/61/108 113/62/108 124/60/108 102/57/108
f 113/62/109 114/44/109 125/45/109 124/60/109
f 104/63/110 120/66/110 122/65/110 103/64/110
f 120/66/111 121/41/111 123/16/111 122/65/111
f 8/7/112 31/67/112 120/66/112 104/63/112
f 31/67/113 117/40/113 121/41/113 120/66/113
f 95/68/114 114/72/114 165/71/114 162/70/114 99/69/114
f 114/72/115 113/27/115 161/28/115 165/71/115
f 103/64/116 122/65/116 116/74/116 98/73/116
f 122/65/117 123/16/117 115/17/117 116/74/117
f 101/58/118 126/59/118 30/75/118 7/26/118
f 126/59/119 127/12/119 132/13/119 29/76/119 30/75/119
f 99/69/120 162/70/120 164/79/120 115/78/120 96/77/120
f 119/121/121 159/122/121 190/122/121 188/121/121
f 129/36/122 106/37/122 199/38/122 154/35/122
f 148/82/123 109/53/123 151/84/123 146/83/123
f 133/52/124 12/48/124 43/86/124 136/85/124
f 147/87/125 110/9/125 109/53/125 148/82/125
f 128/88/126 137/22/126 138/90/126 134/89/126
f 151/84/127 109/53/127 152/54/127
f 129/14/128 5/33/128 29/76/128 132/13/128
f 134/89/129 138/90/129 140/50/129 130/51/129
f 150/11/130 110/9/130 147/87/130
f 141/91/131 144/94/131 62/93/131 54/92/131
f 138/90/132 108/96/132 107/95/132 140/50/132
f 140/50/133 107/95/133 6/43/133 53/49/133
f 142/21/134 135/98/134 131/97/134 139/39/134
f 137/22/135 99/23/135 96/99/135 108/96/135 138/90/135
f 139/39/136 131/97/136 153/101/136 143/100/136
f 137/22/137 128/88/137 135/98/137 142/21/137
f 144/94/138 141/91/138 143/100/138
f 145/102/139 141/91/139 54/92/139 64/103/139
f 144/94/140 136/85/140 43/86/140 62/93/140
f 143/100/141 141/91/141 145/102/141
f 153/101/142 136/85/142 144/94/142 143/100/142
f 133/52/143 136/85/143 153/101/143
f 148/82/144 131/97/144 135/98/144 147/87/144
f 150/11/145 128/88/145 134/89/145 149/10/145
f 152/54/146 130/51/146 133/52/146 151/84/146
f 149/10/147 134/89/147 130/51/147 152/54/147
f 147/87/148 135/98/148 128/88/148 150/11/148
f 146/83/149 153/101/149 131/97/149 148/82/149
f 151/84/150 133/52/150 153/101/150 146/83/150
f 154/35/151 158/105/151 197/104/151 78/34/151
f 155/106/152 145/102/152 64/103/152 77/107/152
f 199/38/153 158/105/153 154/35/153
f 155/106/154 199/38/154 139/39/154 143/100/154 145/102/154
f 86/108/155 80/110/155 192/110/155 191/108/155
f 156/112/36 157/110/37 208/110/36 207/112/37
f 84/117/36 200/111/38 206/111/156 205/117/37
f 198/113/157 155/106/157 77/107/157 81/114/157
f 199/38/158 155/106/158 198/113/158
f 194/108/36 82/109/37 204/109/36 201/108/38
f 76/115/159 196/116/38 202/116/36 203/115/37
f 79/109/160 86/108/160 191/108/160 85/109/160
f 186/2/161 163/3/161 164/79/161 185/118/161
f 161/28/162 184/1/162 183/119/162 165/71/162
f 162/70/163 183/119/163 185/118/163 164/79/163
f 166/4/164 184/1/164 161/28/164
f 166/4/165 100/29/165 98/55/165 116/120/165 163/3/165
f 163/3/166 116/120/166 115/78/166 164/79/166
f 165/71/167 183/119/167 162/70/167
f 33/123/168 34/81/168 168/1/168 167/119/168
f 88/124/169 33/123/169 167/119/169 169/118/169
f 34/81/170 87/80/170 170/2/170 168/1/170
f 87/80/171 88/124/171 169/118/171 170/2/171
f 173/124/36 174/80/37 178/80/36 177/124/37
f 34/81/36 33/123/38 171/123/73 172/81/38
f 88/124/36 87/80/37 174/80/36 173/124/37
f 33/123/172 88/124/37 173/124/74 171/123/37
f 178/80/173 176/81/173 180/81/173 182/80/173
f 171/123/172 173/124/37 177/124/74 175/123/37
f 174/80/36 172/81/37 176/81/36 178/80/38
f 172/81/36 171/123/38 175/123/73 176/81/38
f 179/123/174 181/124/174 182/80/174 180/81/174
f 176/81/175 175/123/175 179/123/175 180/81/175
f 177/124/176 178/80/176 182/80/176 181/124/176
f 175/123/177 177/124/177 181/124/177 179/123/177
f 119/121/178 118/125/178 183/119/178 184/1/178
f 118/125/179 160/126/179 185/118/179 183/119/179
f 159/122/180 119/121/180 184/1/180 186/2/180
f 160/126/181 159/122/181 186/2/181 185/118/181
f 187/125/182 188/121/182 190/122/182 189/126/182
f 118/125/183 119/121/183 188/121/183 187/125/183
f 159/122/184 160/126/184 189/126/184 190/122/184
f 160/126/185 118/125/185 187/125/185 189/126/185
f 82/109/186 194/108/186 81/114/186 193/113/186
f 76/115/187 82/109/187 193/113/187 195/38/187
f 196/116/188 76/115/188 195/38/188 83/105/188
f 84/117/189 196/116/189 83/105/189 197/104/189
f 194/108/190 157/110/190 198/113/190 81/114/190
f 157/110/191 156/112/191 199/38/191 198/113/191
f 156/112/192 200/111/192 158/105/192 199/38/192
f 200/111/193 84/117/193 197/104/193 158/105/193
f 201/108/72 204/109/72 79/109/72 86/108/72
f 203/115/194 202/116/194 211/116/194 213/115/194
f 208/110/78 201/108/78 86/108/78 80/110/78
f 206/111/195 207/112/195 218/112/195 216/111/195
f 204/109/196 203/115/196 213/115/196 214/109/196 79/109/196
f 202/116/197 205/117/197 215/117/197 211/116/197
f 207/112/198 208/110/198 80/110/198 219/110/198 218/112/198
f 205/117/199 206/111/199 216/111/199 215/117/199
f 212/127/200 214/109/200 213/115/200
f 212/127/201 210/128/201 209/108/201 214/109/201
f 211/116/202 212/127/202 213/115/202
f 211/116/203 215/117/203 210/128/203 212/127/203
f 217/127/204 218/112/204 219/110/204
f 217/127/205 219/110/205 209/108/205 210/128/205
f 216/111/206 218/112/206 217/127/206
f 216/111/207 217/127/207 210/128/207 215/117/207
